<svg width="1148" height="8" viewBox="0 0 1148 8" fill="none" xmlns="http://www.w3.org/2000/svg">
<path d="M0.646447 3.64645C0.451184 3.84171 0.451184 4.15829 0.646447 4.35355L3.82843 7.53553C4.02369 7.7308 4.34027 7.7308 4.53553 7.53553C4.7308 7.34027 4.7308 7.02369 4.53553 6.82843L1.70711 4L4.53553 1.17157C4.7308 0.976311 4.7308 0.659728 4.53553 0.464466C4.34027 0.269204 4.02369 0.269204 3.82843 0.464466L0.646447 3.64645ZM1147.35 4.35355C1147.55 4.15829 1147.55 3.84171 1147.35 3.64645L1144.17 0.464466C1143.98 0.269204 1143.66 0.269204 1143.46 0.464466C1143.27 0.659728 1143.27 0.976311 1143.46 1.17157L1146.29 4L1143.46 6.82843C1143.27 7.02369 1143.27 7.34027 1143.46 7.53553C1143.66 7.7308 1143.98 7.7308 1144.17 7.53553L1147.35 4.35355ZM1 4.5H3.0035V3.5H1V4.5ZM7.01049 4.5H11.0175V3.5H7.01049V4.5ZM15.0245 4.5H19.0315V3.5H15.0245V4.5ZM23.0385 4.5H27.0455V3.5H23.0385V4.5ZM31.0524 4.5H35.0594V3.5H31.0524V4.5ZM39.0664 4.5H43.0734V3.5H39.0664V4.5ZM47.0804 4.5H51.0874V3.5H47.0804V4.5ZM55.0944 4.5H59.1014V3.5H55.0944V4.5ZM63.1084 4.5H67.1154V3.5H63.1084V4.5ZM71.1224 4.5H75.1294V3.5H71.1224V4.5ZM79.1364 4.5H83.1434V3.5H79.1364V4.5ZM87.1504 4.5H91.1574V3.5H87.1504V4.5ZM95.1644 4.5H99.1713V3.5H95.1644V4.5ZM103.178 4.5H107.185V3.5H103.178V4.5ZM111.192 4.5H115.199V3.5H111.192V4.5ZM119.206 4.5H123.213V3.5H119.206V4.5ZM127.22 4.5H131.227V3.5H127.22V4.5ZM135.234 4.5H139.241V3.5H135.234V4.5ZM143.248 4.5H147.255V3.5H143.248V4.5ZM151.262 4.5H155.269V3.5H151.262V4.5ZM159.276 4.5H163.283V3.5H159.276V4.5ZM167.29 4.5H171.297V3.5H167.29V4.5ZM175.304 4.5H179.311V3.5H175.304V4.5ZM183.318 4.5H187.325V3.5H183.318V4.5ZM191.332 4.5H195.339V3.5H191.332V4.5ZM199.346 4.5H203.353V3.5H199.346V4.5ZM207.36 4.5H211.367V3.5H207.36V4.5ZM215.374 4.5H219.381V3.5H215.374V4.5ZM223.388 4.5H227.395V3.5H223.388V4.5ZM231.402 4.5H235.409V3.5H231.402V4.5ZM239.416 4.5H243.423V3.5H239.416V4.5ZM247.43 4.5H251.437V3.5H247.43V4.5ZM255.444 4.5H259.451V3.5H255.444V4.5ZM263.458 4.5H267.465V3.5H263.458V4.5ZM271.472 4.5H275.479V3.5H271.472V4.5ZM279.486 4.5H283.493V3.5H279.486V4.5ZM287.5 4.5H291.507V3.5H287.5V4.5ZM295.514 4.5H299.521V3.5H295.514V4.5ZM303.528 4.5H307.535V3.5H303.528V4.5ZM311.542 4.5H315.549V3.5H311.542V4.5ZM319.556 4.5H323.563V3.5H319.556V4.5ZM327.57 4.5H331.577V3.5H327.57V4.5ZM335.584 4.5H339.591V3.5H335.584V4.5ZM343.598 4.5H347.605V3.5H343.598V4.5ZM351.612 4.5H355.619V3.5H351.612V4.5ZM359.626 4.5H363.633V3.5H359.626V4.5ZM367.64 4.5H371.647V3.5H367.64V4.5ZM375.654 4.5H379.661V3.5H375.654V4.5ZM383.668 4.5H387.675V3.5H383.668V4.5ZM391.682 4.5H395.689V3.5H391.682V4.5ZM399.696 4.5H403.703V3.5H399.696V4.5ZM407.71 4.5H411.717V3.5H407.71V4.5ZM415.724 4.5H419.73V3.5H415.724V4.5ZM423.737 4.5H427.744V3.5H423.737V4.5ZM431.751 4.5H435.758V3.5H431.751V4.5ZM439.765 4.5H443.772V3.5H439.765V4.5ZM447.779 4.5H451.786V3.5H447.779V4.5ZM455.793 4.5H459.8V3.5H455.793V4.5ZM463.807 4.5H467.814V3.5H463.807V4.5ZM471.821 4.5H475.828V3.5H471.821V4.5ZM479.835 4.5H483.842V3.5H479.835V4.5ZM487.849 4.5H491.856V3.5H487.849V4.5ZM495.863 4.5H499.87V3.5H495.863V4.5ZM503.877 4.5H507.884V3.5H503.877V4.5ZM511.891 4.5H515.898V3.5H511.891V4.5ZM519.905 4.5H523.912V3.5H519.905V4.5ZM527.919 4.5H531.926V3.5H527.919V4.5ZM535.933 4.5H539.94V3.5H535.933V4.5ZM543.947 4.5H547.954V3.5H543.947V4.5ZM551.961 4.5H555.968V3.5H551.961V4.5ZM559.975 4.5H563.982V3.5H559.975V4.5ZM567.99 4.5H571.997V3.5H567.99V4.5ZM576.004 4.5H580.011V3.5H576.004V4.5ZM584.018 4.5H588.025V3.5H584.018V4.5ZM592.032 4.5H596.039V3.5H592.032V4.5ZM600.046 4.5H604.053V3.5H600.046V4.5ZM608.06 4.5H612.067V3.5H608.06V4.5ZM616.074 4.5H620.081V3.5H616.074V4.5ZM624.088 4.5H628.095V3.5H624.088V4.5ZM632.102 4.5H636.109V3.5H632.102V4.5ZM640.116 4.5H644.123V3.5H640.116V4.5ZM648.13 4.5H652.137V3.5H648.13V4.5ZM656.144 4.5H660.151V3.5H656.144V4.5ZM664.158 4.5H668.165V3.5H664.158V4.5ZM672.172 4.5H676.179V3.5H672.172V4.5ZM680.186 4.5H684.193V3.5H680.186V4.5ZM688.2 4.5H692.207V3.5H688.2V4.5ZM696.214 4.5H700.221V3.5H696.214V4.5ZM704.228 4.5H708.235V3.5H704.228V4.5ZM712.242 4.5H716.249V3.5H712.242V4.5ZM720.256 4.5H724.263V3.5H720.256V4.5ZM728.27 4.5H732.277V3.5H728.27V4.5ZM736.284 4.5H740.291V3.5H736.284V4.5ZM744.298 4.5H748.305V3.5H744.298V4.5ZM752.312 4.5H756.319V3.5H752.312V4.5ZM760.326 4.5H764.333V3.5H760.326V4.5ZM768.34 4.5H772.347V3.5H768.34V4.5ZM776.354 4.5H780.362V3.5H776.354V4.5ZM784.369 4.5H788.376V3.5H784.369V4.5ZM792.383 4.5H796.39V3.5H792.383V4.5ZM800.397 4.5H804.404V3.5H800.397V4.5ZM808.411 4.5H812.418V3.5H808.411V4.5ZM816.425 4.5H820.432V3.5H816.425V4.5ZM824.439 4.5H828.446V3.5H824.439V4.5ZM832.453 4.5H836.46V3.5H832.453V4.5ZM840.467 4.5H844.474V3.5H840.467V4.5ZM848.481 4.5H852.488V3.5H848.481V4.5ZM856.495 4.5H860.502V3.5H856.495V4.5ZM864.509 4.5H868.516V3.5H864.509V4.5ZM872.523 4.5H876.53V3.5H872.523V4.5ZM880.537 4.5H884.544V3.5H880.537V4.5ZM888.551 4.5H892.558V3.5H888.551V4.5ZM896.565 4.5H900.572V3.5H896.565V4.5ZM904.579 4.5H908.586V3.5H904.579V4.5ZM912.593 4.5H916.6V3.5H912.593V4.5ZM920.607 4.5H924.614V3.5H920.607V4.5ZM928.621 4.5H932.628V3.5H928.621V4.5ZM936.635 4.5H940.642V3.5H936.635V4.5ZM944.649 4.5H948.656V3.5H944.649V4.5ZM952.663 4.5H956.67V3.5H952.663V4.5ZM960.677 4.5H964.684V3.5H960.677V4.5ZM968.691 4.5H972.698V3.5H968.691V4.5ZM976.705 4.5H980.712V3.5H976.705V4.5ZM984.719 4.5H988.727V3.5H984.719V4.5ZM992.734 4.5H996.741V3.5H992.734V4.5ZM1000.75 4.5H1004.75V3.5H1000.75V4.5ZM1008.76 4.5H1012.77V3.5H1008.76V4.5ZM1016.78 4.5H1020.78V3.5H1016.78V4.5ZM1024.79 4.5H1028.8V3.5H1024.79V4.5ZM1032.8 4.5H1036.81V3.5H1032.8V4.5ZM1040.82 4.5H1044.82V3.5H1040.82V4.5ZM1048.83 4.5H1052.84V3.5H1048.83V4.5ZM1056.85 4.5H1060.85V3.5H1056.85V4.5ZM1064.86 4.5H1068.87V3.5H1064.86V4.5ZM1072.87 4.5H1076.88V3.5H1072.87V4.5ZM1080.89 4.5H1084.89V3.5H1080.89V4.5ZM1088.9 4.5H1092.91V3.5H1088.9V4.5ZM1096.91 4.5H1100.92V3.5H1096.91V4.5ZM1104.93 4.5H1108.94V3.5H1104.93V4.5ZM1112.94 4.5H1116.95V3.5H1112.94V4.5ZM1120.96 4.5H1124.96V3.5H1120.96V4.5ZM1128.97 4.5H1132.98V3.5H1128.97V4.5ZM1136.98 4.5H1140.99V3.5H1136.98V4.5ZM1145 4.5H1147V3.5H1145V4.5Z" fill="white"/>
</svg>
