<svg width="29" height="27" viewBox="0 0 29 27" fill="none" xmlns="http://www.w3.org/2000/svg">
<path d="M13.3311 0C13.9232 0 14.5169 0 15.1089 0C15.1802 0.0150312 15.2514 0.037578 15.3226 0.0435905C17.5263 0.201418 19.589 0.801162 21.4744 1.89543C25.1646 4.03888 27.4236 7.1323 28.2215 11.1757C28.3181 11.6657 28.3687 12.1647 28.4399 12.6593V14.2947C28.3798 14.7546 28.3434 15.2191 28.2547 15.673C27.335 20.3658 24.6026 23.7463 20.0687 25.804C19.4655 26.0776 18.8212 26.27 18.1674 26.5105V16.4907H21.2117C21.3668 15.3544 21.5172 14.2466 21.6723 13.1012H18.1595C18.1595 12.2715 18.1437 11.4718 18.1642 10.6736C18.1864 9.8319 18.6597 9.37646 19.5494 9.33738C20.1874 9.30882 20.827 9.32235 21.4649 9.31784C21.5631 9.31784 21.6612 9.31784 21.7562 9.31784V6.28905C20.6164 6.20488 19.4893 6.08312 18.3653 6.2154C17.8144 6.28003 17.2492 6.41982 16.7506 6.6483C15.2704 7.3247 14.6213 8.55275 14.5074 10.0438C14.4377 10.9532 14.4789 11.8701 14.4694 12.784C14.4694 12.8862 14.4694 12.9885 14.4694 13.1192H11.4299V16.4982H14.444V26.996C13.3596 27.0216 12.3116 26.9239 11.2795 26.7089C7.82522 25.9919 5.00578 24.3024 2.87497 21.6284C0.636508 18.8191 -0.284838 15.6249 0.0761016 12.1212C0.372135 9.25621 1.54519 6.73097 3.55885 4.577C5.76723 2.2156 8.51386 0.74705 11.7971 0.204424C12.3053 0.12025 12.8198 0.0676404 13.3311 0Z" fill="#25AE7A"/>
</svg>
