<svg width="27" height="27" viewBox="0 0 27 27" fill="none" xmlns="http://www.w3.org/2000/svg">
<path d="M0 14.3459C0 13.784 0 13.2206 0 12.6587C0.085867 12.0697 0.147631 11.4761 0.259107 10.8917C1.36785 5.09337 6.30595 0.605689 12.1735 0.0663835C15.0569 -0.19875 17.7971 0.317959 20.2676 1.83946C25.1003 4.81769 27.3404 9.19088 26.9216 14.8536C26.7242 17.532 25.6833 19.9228 23.9795 22.0016C21.8599 24.5867 19.1483 26.191 15.8523 26.7906C15.3536 26.881 14.8475 26.9307 14.3443 27H12.6571C12.3272 26.9593 11.9973 26.9247 11.6689 26.878C9.17873 26.524 6.94167 25.5749 4.99686 23.9766C2.41482 21.854 0.807451 19.1469 0.209395 15.8539C0.119009 15.3552 0.0692962 14.8491 0 14.3459ZM5.70789 13.5098C5.7561 14.7918 5.75911 16.0858 5.86607 17.3708C6.03027 19.3352 7.40113 20.8085 9.34444 21.0842C10.3221 21.2228 11.3224 21.2409 12.3136 21.2409C13.9903 21.2409 15.673 21.2484 17.3436 21.1309C18.8937 21.0209 20.0733 20.2271 20.7557 18.7884C21.054 18.1602 21.1866 17.4853 21.1971 16.7969C21.2242 14.9786 21.2408 13.1603 21.2423 11.3406C21.2423 10.7711 21.2031 10.1987 21.1444 9.63076C20.9425 7.66185 19.6108 6.20211 17.6585 5.9189C16.6898 5.7788 15.6971 5.76223 14.7164 5.76223C13.0307 5.76223 11.339 5.75469 9.65928 5.86918C7.56383 6.0138 6.03931 7.56091 5.86456 9.65486C5.75761 10.9308 5.75761 12.2158 5.7094 13.5083L5.70789 13.5098Z" fill="#25AE7A"/>
<path d="M13.5036 7.12402C14.6681 7.15717 15.8462 7.16168 17.0212 7.23098C18.6466 7.32739 19.7192 8.35026 19.7629 9.96969C19.8247 12.3122 19.8277 14.6592 19.7644 17.0017C19.7207 18.6558 18.6557 19.7194 16.9986 19.7645C14.6651 19.8278 12.3271 19.8263 9.99214 19.7645C8.35012 19.7209 7.28206 18.6558 7.23837 17.0198C7.1751 14.6773 7.1751 12.3303 7.23837 9.98776C7.28206 8.35026 8.35163 7.3289 9.99063 7.23098C11.1566 7.16168 12.3256 7.15717 13.5067 7.12402H13.5036ZM17.4776 13.4993C17.4761 11.3014 15.7106 9.53282 13.5112 9.52378C11.3073 9.51474 9.52063 11.2969 9.52213 13.5023C9.52364 15.6972 11.2907 17.4687 13.4901 17.4778C15.6925 17.4868 17.4806 15.7032 17.4791 13.4978L17.4776 13.4993ZM18.5638 9.3882C18.5743 8.87601 18.1796 8.4527 17.675 8.43764C17.1492 8.42107 16.7214 8.82027 16.7124 9.33849C16.7018 9.85369 17.095 10.274 17.5997 10.2891C18.1254 10.3041 18.5532 9.90642 18.5653 9.38971L18.5638 9.3882Z" fill="#25AE7A"/>
<path d="M16.0841 13.5009C16.0841 14.9215 14.9301 16.0815 13.5096 16.086C12.0784 16.0905 10.9125 14.923 10.9185 13.4919C10.923 12.0728 12.086 10.9189 13.5065 10.9204C14.9271 10.9234 16.0841 12.0804 16.0841 13.5009Z" fill="#25AE7A"/>
</svg>
