<svg width="74" height="38" viewBox="0 0 74 38" fill="none" xmlns="http://www.w3.org/2000/svg">
<path d="M66.2817 0.55957H29.5997C25.3032 0.55957 21.8814 3.96853 21.8814 8.07448V29.8445C21.8814 34.0278 25.3827 37.3594 29.5997 37.3594H66.2817C70.5782 37.3594 74 33.9504 74 29.8445L73.9995 8.07448C73.9995 3.9684 70.5788 0.55957 66.2817 0.55957ZM70.6582 29.922C70.6582 32.2463 68.6689 34.1831 66.2817 34.1831H29.5997C27.2125 34.1831 25.2232 32.2463 25.2232 29.922V8.07448C25.2232 5.75014 27.2125 3.81331 29.5997 3.81331H66.2817C68.6689 3.81331 70.6582 5.75014 70.6582 8.07448V29.922ZM66.3617 27.83C67.0777 28.4499 67.0777 29.4573 66.521 30.1544C66.2029 30.5419 65.725 30.697 65.2477 30.697C64.8498 30.697 64.4518 30.5419 64.1338 30.3095L52.6755 20.3151L48.9357 23.1042C48.6176 23.3366 48.299 23.4138 47.9011 23.4138C47.5031 23.4138 47.1851 23.3366 46.8665 23.1042L43.286 20.3923L31.7484 30.3095C31.4304 30.6191 31.0324 30.6964 30.6345 30.6964C30.1571 30.6964 29.6798 30.5413 29.3612 30.1538C28.7246 29.4567 28.804 28.4494 29.5205 27.8295L40.5808 18.3778L29.6005 10.0889C28.8845 9.54637 28.7252 8.46172 29.2825 7.7646C29.8397 7.06747 30.9537 6.91237 31.6697 7.45494L44.2418 16.984L47.9024 19.7731L64.1347 7.53228C64.8507 6.9897 65.9647 7.06752 66.522 7.84194C67.0792 8.53907 66.9993 9.62368 66.2039 10.1663L55.3812 18.3011L66.3617 27.83ZM19.6539 18.9981C19.6539 19.9276 18.8579 20.6253 17.9826 20.6253H7.16105C6.20638 20.6253 5.48979 19.8503 5.48979 18.9981C5.48979 18.0686 6.28572 17.3709 7.16105 17.3709H17.9033C18.858 17.3709 19.6539 18.0685 19.6539 18.9981ZM0 12.0258C0 11.0962 0.795931 10.3985 1.67126 10.3985H17.9036C18.8583 10.3985 19.5749 11.1735 19.5749 12.0258C19.5749 12.9553 18.7789 13.653 17.9036 13.653L1.67126 13.6524C0.716588 13.6524 0 12.878 0 12.0258ZM19.6539 25.971C19.6539 26.9005 18.8579 27.5982 17.9826 27.5982H10.9009C9.94618 27.5982 9.22959 26.8232 9.22959 25.971C9.22959 25.0414 10.0255 24.3437 10.9009 24.3437L17.9032 24.3443C18.8579 24.3443 19.6539 25.1187 19.6539 25.971Z" fill="white"/>
</svg>
