<svg width="730" height="387" viewBox="0 0 730 387" fill="none" xmlns="http://www.w3.org/2000/svg">
<path d="M3.11886 152.446C48.8089 162.666 96.5789 169.896 143.339 163.996C166.609 160.316 189.499 154.366 212.039 147.236C234.769 140.056 258.319 134.956 281.879 131.296C287.959 130.316 294.039 129.996 300.049 129.816C349.029 128.666 397.799 137.036 446.599 137.236C447.909 137.156 449.419 136.956 450.039 136.736C450.129 136.736 450.149 136.576 449.589 137.116C449.099 137.476 448.679 139.036 449.009 139.786C418.419 126.826 379.129 113.066 344.599 103.166C341.739 102.096 339.599 97.4563 341.489 94.2563C345.629 86.6063 371.539 89.2563 379.749 89.0763C397.539 89.3963 415.149 91.3163 432.699 89.4863C434.109 89.2763 435.549 88.9563 436.399 88.5863C436.809 88.4563 436.979 88.1463 436.509 88.6963C436.189 89.0263 435.969 90.3863 436.239 90.7063C428.809 83.4463 419.609 77.8663 410.249 73.3763C404.689 70.7963 398.489 68.4263 392.649 66.9863C388.009 65.8463 388.169 59.0663 392.749 58.0563L444.639 45.9563C446.669 45.4863 448.689 46.7463 449.169 48.7663C449.629 50.7563 448.429 52.7363 446.469 53.2663L394.989 67.0063L394.909 58.0363C408.199 61.6663 420.369 67.7063 431.539 75.6563C434.289 77.6363 436.959 79.7563 439.499 82.0263C441.179 83.5763 442.559 84.4663 443.819 86.8363C447.169 94.1063 439.439 97.2963 433.949 97.8263C415.819 99.7063 397.449 97.5863 379.489 97.1463C369.389 96.9863 358.909 95.9663 349.139 98.0563C348.569 98.2163 348.099 98.4463 348.029 98.5063C348.339 98.4063 348.749 97.1663 348.589 96.7863C348.439 96.1663 348.489 96.5563 348.809 96.8763L346.959 95.7163C381.329 106.036 415.009 117.746 448.039 131.796C451.779 133.366 458.739 136.886 454.779 141.856C452.409 144.156 449.489 143.896 447.089 144.226C439.479 144.626 431.879 144.116 424.399 143.706C382.919 141.176 341.759 136.076 300.259 136.636C294.399 136.806 288.599 137.116 282.949 138.016C259.549 141.526 236.549 146.356 213.909 153.356C191.119 160.416 167.909 166.326 144.199 169.916C120.329 173.086 96.2489 172.086 72.4189 169.606C48.6589 167.026 25.1689 162.936 1.91886 157.256C0.588857 156.936 -0.221143 155.596 0.0988566 154.266C0.428857 152.916 1.79886 152.106 3.13886 152.456L3.11886 152.446Z" fill="#BAF4EA"/>
<path d="M28.2589 206.506C32.7389 206.506 36.5589 207.976 39.7289 210.916C42.8789 213.836 44.4489 217.356 44.4489 221.476C44.4489 225.596 42.9689 228.866 39.9989 231.766C37.0289 234.626 33.4289 236.176 29.1789 236.406H28.4089C28.3589 236.436 28.3089 236.446 28.2589 236.446C28.3389 236.446 28.2989 236.436 28.1389 236.406H13.0589V259.286C13.0589 259.926 12.8289 260.466 12.3689 260.896C11.9289 261.356 11.3989 261.586 10.7589 261.586C10.1189 261.586 9.57886 261.356 9.14886 260.896C8.68886 260.466 8.45886 259.926 8.45886 259.286V208.816C8.45886 208.176 8.68886 207.636 9.14886 207.206C9.57886 206.746 10.1189 206.516 10.7589 206.516H28.2589V206.506ZM28.5689 231.836C31.6889 231.756 34.3489 230.726 36.5489 228.726C38.7789 226.706 39.8889 224.286 39.8889 221.476C39.8889 218.666 38.7489 216.166 36.4689 214.146C34.1889 212.126 31.4489 211.116 28.2589 211.116H13.0589V231.836H28.5689Z" fill="#25AE7A"/>
<path d="M97.2089 206.616C101.639 206.616 105.419 208.066 108.569 210.956C111.689 213.846 113.249 217.346 113.249 221.436C113.249 225.066 111.969 228.266 109.409 231.026C106.899 233.766 103.739 235.426 99.9288 236.016L110.869 258.316C111.149 258.876 111.189 259.456 110.989 260.046C110.779 260.636 110.399 261.066 109.839 261.356C109.529 261.506 109.199 261.586 108.839 261.586C107.889 261.586 107.219 261.166 106.809 260.316L94.9489 236.256H82.1289V258.936C82.1289 259.546 81.8989 260.086 81.4389 260.546C81.0089 260.986 80.4688 261.196 79.8288 261.196C79.1888 261.196 78.6788 260.976 78.2188 260.546C77.7788 260.086 77.5688 259.546 77.5688 258.936V208.886C77.5688 208.246 77.7888 207.706 78.2188 207.276C78.6788 206.836 79.2188 206.626 79.8288 206.626H97.2188L97.2089 206.616ZM108.719 221.436C108.719 218.596 107.589 216.176 105.339 214.186C103.089 212.166 100.379 211.156 97.1989 211.156H82.1189V231.686H97.4688C100.589 231.636 103.239 230.616 105.409 228.616C107.609 226.616 108.709 224.226 108.709 221.436H108.719Z" fill="#25AE7A"/>
<path d="M144.279 261.386C143.689 261.156 143.279 260.746 143.049 260.156C142.789 259.566 142.789 258.976 143.049 258.396L148.379 245.536V245.496L163.929 207.996C163.979 207.866 164.049 207.726 164.119 207.576L164.279 207.426C164.359 207.326 164.409 207.256 164.429 207.236C164.459 207.206 164.519 207.156 164.619 207.086C164.749 206.986 164.799 206.946 164.769 206.966C165.029 206.786 165.289 206.676 165.579 206.626H165.769C165.919 206.596 166.009 206.586 166.039 206.586C166.069 206.586 166.139 206.596 166.269 206.626C166.419 206.626 166.489 206.626 166.459 206.626C166.769 206.676 167.049 206.796 167.299 206.966L167.459 207.086C167.559 207.186 167.629 207.236 167.649 207.236C167.679 207.266 167.729 207.326 167.799 207.426C167.899 207.556 167.949 207.606 167.949 207.576C168.029 207.726 168.089 207.866 168.139 207.996L183.679 245.496V245.536L189.019 258.396C189.269 258.986 189.269 259.576 189.019 260.156C188.789 260.746 188.379 261.156 187.789 261.386C187.509 261.516 187.209 261.576 186.909 261.576C185.889 261.576 185.179 261.106 184.799 260.156L180.039 248.716H152.019L147.259 260.156C146.879 261.106 146.169 261.576 145.149 261.576C144.839 261.576 144.549 261.516 144.269 261.386H144.279ZM178.169 244.116L166.039 214.866L153.909 244.116H178.169Z" fill="#25AE7A"/>
<path d="M222.669 261.577C222.029 261.577 221.489 261.357 221.059 260.927C220.599 260.467 220.369 259.917 220.369 259.277V208.807C220.369 208.167 220.599 207.617 221.059 207.157C221.489 206.697 222.029 206.467 222.669 206.467H235.449C243.019 206.467 249.499 209.157 254.869 214.527C260.239 219.897 262.929 226.377 262.929 233.947C262.929 241.517 260.239 247.997 254.869 253.367C249.499 258.737 243.019 261.427 235.449 261.427L222.709 261.577H222.669ZM224.969 256.937L235.409 256.787C241.729 256.787 247.129 254.557 251.609 250.107C256.089 245.627 258.329 240.247 258.329 233.947C258.329 227.647 256.089 222.267 251.609 217.787C247.129 213.337 241.749 211.107 235.449 211.107H224.969V256.937Z" fill="#25AE7A"/>
<path d="M299.629 261.576C298.989 261.576 298.449 261.346 298.019 260.886C297.559 260.456 297.329 259.916 297.329 259.276V208.766C297.329 208.126 297.559 207.586 298.019 207.156C298.479 206.666 299.019 206.436 299.629 206.466L330.099 206.546C330.739 206.546 331.279 206.776 331.709 207.236C332.169 207.696 332.399 208.236 332.399 208.846C332.399 209.456 332.169 210.036 331.709 210.496C331.279 210.926 330.739 211.146 330.099 211.146L301.929 211.066V231.716H322.999C323.639 231.716 324.179 231.946 324.609 232.406C325.069 232.836 325.299 233.376 325.299 234.016C325.299 234.656 325.069 235.196 324.609 235.626C324.169 236.086 323.639 236.316 322.999 236.316H301.929V256.966H330.099C330.739 256.966 331.279 257.196 331.709 257.656C332.169 258.096 332.399 258.626 332.399 259.266C332.399 259.906 332.169 260.446 331.709 260.876C331.279 261.336 330.739 261.566 330.099 261.566H299.629V261.576Z" fill="#25AE7A"/>
<path d="M383.819 206.616C388.249 206.616 392.029 208.066 395.179 210.956C398.299 213.846 399.859 217.346 399.859 221.436C399.859 225.066 398.579 228.266 396.019 231.026C393.509 233.766 390.349 235.426 386.539 236.016L397.479 258.316C397.759 258.876 397.799 259.456 397.599 260.046C397.389 260.636 397.009 261.066 396.449 261.356C396.139 261.506 395.809 261.586 395.449 261.586C394.499 261.586 393.829 261.166 393.419 260.316L381.559 236.256H368.739V258.936C368.739 259.546 368.509 260.086 368.049 260.546C367.619 260.986 367.079 261.196 366.439 261.196C365.799 261.196 365.289 260.976 364.829 260.546C364.389 260.086 364.179 259.546 364.179 258.936V208.886C364.179 208.246 364.399 207.706 364.829 207.276C365.289 206.836 365.829 206.626 366.439 206.626H383.829L383.819 206.616ZM395.329 221.436C395.329 218.596 394.199 216.176 391.949 214.186C389.699 212.166 386.989 211.156 383.809 211.156H368.729V231.686H384.079C387.199 231.636 389.849 230.616 392.019 228.616C394.219 226.616 395.319 224.226 395.319 221.436H395.329Z" fill="#25AE7A"/>
<path d="M430.889 261.386C430.299 261.156 429.889 260.746 429.659 260.156C429.399 259.566 429.399 258.976 429.659 258.396L434.989 245.536V245.496L450.539 207.996C450.589 207.866 450.659 207.726 450.729 207.576L450.889 207.426C450.969 207.326 451.019 207.256 451.039 207.236C451.069 207.206 451.129 207.156 451.229 207.086C451.359 206.986 451.409 206.946 451.379 206.966C451.639 206.786 451.899 206.676 452.189 206.626H452.379C452.529 206.596 452.619 206.586 452.649 206.586C452.679 206.586 452.749 206.596 452.879 206.626C453.029 206.626 453.099 206.626 453.069 206.626C453.379 206.676 453.659 206.796 453.909 206.966L454.069 207.086C454.169 207.186 454.239 207.236 454.259 207.236C454.289 207.266 454.339 207.326 454.409 207.426C454.509 207.556 454.559 207.606 454.559 207.576C454.639 207.726 454.699 207.866 454.749 207.996L470.289 245.496V245.536L475.629 258.396C475.879 258.986 475.879 259.576 475.629 260.156C475.399 260.746 474.989 261.156 474.399 261.386C474.119 261.516 473.819 261.576 473.519 261.576C472.499 261.576 471.789 261.106 471.409 260.156L466.649 248.716H438.629L433.869 260.156C433.489 261.106 432.779 261.576 431.759 261.576C431.449 261.576 431.159 261.516 430.879 261.386H430.889ZM464.779 244.116L452.649 214.866L440.519 244.116H464.779Z" fill="#25AE7A"/>
<path d="M522.479 236.326C516.339 236.246 511.709 234.546 508.589 231.226C506.079 228.566 504.909 225.476 505.059 221.976C505.269 217.656 507.019 213.996 510.319 210.996C513.599 208.006 517.519 206.506 522.099 206.506C526.139 206.506 529.749 207.346 532.919 209.036C536.729 211.036 539.139 213.936 540.129 217.746C540.289 218.356 540.209 218.936 539.899 219.476C539.569 220.016 539.089 220.356 538.479 220.516C537.869 220.696 537.289 220.616 536.749 220.286C536.209 219.976 535.869 219.516 535.709 218.906C535.019 216.246 533.229 214.226 530.339 212.846C527.939 211.666 525.179 211.076 522.089 211.076C518.739 211.076 515.859 212.146 513.449 214.306C511.039 216.456 509.769 219.086 509.609 222.216C509.509 224.416 510.279 226.376 511.909 228.086C514.139 230.466 517.679 231.696 522.539 231.766C523.179 231.796 523.719 232.026 524.149 232.456C524.579 232.916 524.799 233.466 524.799 234.106C524.769 234.716 524.539 235.246 524.109 235.676C523.649 236.116 523.109 236.326 522.499 236.326H522.459H522.479ZM512.349 259.086C508.539 257.066 506.129 254.146 505.139 250.336C504.989 249.746 505.059 249.176 505.369 248.606C505.699 248.066 506.179 247.726 506.789 247.566C507.379 247.416 507.949 247.486 508.519 247.796C509.059 248.126 509.399 248.586 509.559 249.176C510.249 251.836 512.039 253.876 514.929 255.276C517.329 256.426 520.089 257.006 523.179 257.006C526.529 257.006 529.409 255.936 531.819 253.786C534.219 251.636 535.499 249.016 535.659 245.916C535.759 243.686 534.989 241.716 533.359 240.006C531.129 237.626 527.589 236.396 522.729 236.326C522.089 236.326 521.549 236.096 521.119 235.636C520.689 235.176 520.469 234.636 520.469 234.026C520.499 233.386 520.739 232.846 521.199 232.416C521.629 231.976 522.169 231.766 522.809 231.766C528.949 231.866 533.579 233.586 536.699 236.906C539.209 239.546 540.369 242.616 540.189 246.116C540.009 250.436 538.269 254.096 534.969 257.096C531.689 260.086 527.769 261.586 523.189 261.586C519.149 261.586 515.539 260.756 512.369 259.086H512.349Z" fill="#25AE7A"/>
<path d="M618.959 261.577C618.319 261.577 617.779 261.357 617.349 260.927C616.889 260.467 616.659 259.917 616.659 259.277V208.807C616.659 208.167 616.889 207.617 617.349 207.157C617.779 206.697 618.319 206.467 618.959 206.467H631.739C639.309 206.467 645.789 209.157 651.159 214.527C656.529 219.897 659.219 226.377 659.219 233.947C659.219 241.517 656.529 247.997 651.159 253.367C645.789 258.737 639.309 261.427 631.739 261.427L618.999 261.577H618.959ZM621.259 256.937L631.699 256.787C638.019 256.787 643.419 254.557 647.899 250.107C652.379 245.627 654.619 240.247 654.619 233.947C654.619 227.647 652.379 222.267 647.899 217.787C643.419 213.337 638.039 211.107 631.739 211.107H621.259V256.937Z" fill="#25AE7A"/>
<path d="M695.929 261.576C695.289 261.576 694.749 261.346 694.319 260.886C693.859 260.456 693.629 259.916 693.629 259.276V208.766C693.629 208.126 693.859 207.586 694.319 207.156C694.779 206.666 695.319 206.436 695.929 206.466L726.399 206.546C727.039 206.546 727.579 206.776 728.009 207.236C728.469 207.696 728.699 208.236 728.699 208.846C728.699 209.456 728.469 210.036 728.009 210.496C727.579 210.926 727.039 211.146 726.399 211.146L698.229 211.066V231.716H719.299C719.939 231.716 720.479 231.946 720.909 232.406C721.369 232.836 721.599 233.376 721.599 234.016C721.599 234.656 721.369 235.196 720.909 235.626C720.469 236.086 719.939 236.316 719.299 236.316H698.229V256.966H726.399C727.039 256.966 727.579 257.196 728.009 257.656C728.469 258.096 728.699 258.626 728.699 259.266C728.699 259.906 728.469 260.446 728.009 260.876C727.579 261.336 727.039 261.566 726.399 261.566H695.929V261.576Z" fill="#25AE7A"/>
<path d="M64.0688 365.616C63.0888 366.426 61.8288 367.076 60.2888 367.566C58.7488 368.056 56.9988 368.296 55.0488 368.296C52.4488 368.296 50.2788 367.976 48.5288 367.316C46.7788 366.666 45.6188 365.526 45.0588 363.906C42.4588 356.346 40.2388 350.076 38.4188 345.076C36.5888 340.076 35.1488 335.756 34.0888 332.096H33.5988C33.3588 337.136 33.1488 341.746 32.9888 345.936C32.8288 350.126 32.6888 354.206 32.5588 358.186C32.4388 362.166 32.2888 366.196 32.1288 370.256C31.9688 374.326 31.7688 378.786 31.5188 383.666C30.6288 383.996 29.4288 384.296 27.9288 384.576C26.4188 384.856 24.8588 385.006 23.2388 385.006C20.0688 385.006 17.5888 384.456 15.8088 383.356C14.0188 382.256 13.1288 380.366 13.1288 377.686C13.1288 376.146 13.1888 374.006 13.3088 371.286C13.4288 368.566 13.5888 365.436 13.7988 361.896C13.9988 358.356 14.2488 354.566 14.5288 350.496C14.8088 346.436 15.0988 342.306 15.3788 338.126C15.6588 333.946 15.9288 329.796 16.1688 325.696C16.4088 321.596 16.6588 317.796 16.8988 314.296C17.5488 313.406 18.8688 312.406 20.8588 311.306C22.8488 310.206 25.6288 309.666 29.2088 309.666C33.0288 309.666 36.0388 310.276 38.2288 311.496C40.4188 312.716 42.0888 314.706 43.2288 317.466C44.1188 319.656 45.0588 322.116 46.0288 324.846C47.0088 327.566 47.9788 330.356 48.9588 333.196C49.9388 336.036 50.8888 338.866 51.8188 341.666C52.7488 344.466 53.6288 347.046 54.4388 349.406H55.0488C57.3288 342.256 59.5988 335.326 61.8788 328.626C64.1488 321.926 66.1488 316.296 67.8488 311.746C68.9888 311.176 70.4288 310.696 72.1788 310.286C73.9288 309.876 75.8588 309.676 77.9688 309.676C81.6288 309.676 84.5488 310.206 86.7488 311.256C88.9388 312.316 90.2388 313.856 90.6488 315.886C90.9688 317.516 91.3388 319.986 91.7488 323.326C92.1588 326.656 92.5588 330.476 92.9688 334.786C93.3788 339.096 93.7788 343.626 94.1888 348.376C94.5988 353.126 94.9588 357.726 95.2888 362.146C95.6088 366.576 95.8988 370.616 96.1388 374.276C96.3888 377.936 96.5488 380.776 96.6288 382.806C95.4088 383.536 94.1088 384.086 92.7288 384.456C91.3488 384.826 89.5988 385.006 87.4888 385.006C84.8088 385.006 82.5088 384.516 80.5988 383.546C78.6888 382.566 77.6488 380.666 77.4888 377.816C76.9188 368.386 76.5288 359.756 76.3288 351.916C76.1288 344.076 75.8988 337.636 75.6588 332.596H75.0488C74.0688 336.006 72.6688 340.316 70.8388 345.516C69.0088 350.716 66.7588 357.426 64.0688 365.626V365.616Z" fill="#BAF4EA"/>
<path d="M153.169 367.806H129.279C128.389 370.736 127.549 373.616 126.779 376.466C126.009 379.306 125.339 381.826 124.769 384.026C123.709 384.346 122.619 384.636 121.479 384.876C120.339 385.126 118.959 385.246 117.339 385.246C113.759 385.246 111.059 384.616 109.229 383.356C107.399 382.096 106.489 380.286 106.489 377.936C106.489 376.796 106.649 375.706 106.979 374.646C107.299 373.596 107.669 372.376 108.079 370.986C108.649 368.796 109.459 366.066 110.519 362.816C111.569 359.566 112.729 356.046 113.989 352.276C115.249 348.506 116.569 344.616 117.949 340.636C119.329 336.656 120.669 332.856 121.969 329.236C123.269 325.626 124.449 322.306 125.509 319.306C126.559 316.296 127.459 313.906 128.189 312.116C129.409 311.386 131.299 310.696 133.859 310.046C136.419 309.396 138.959 309.066 141.479 309.066C145.139 309.066 148.369 309.576 151.169 310.596C153.979 311.616 155.779 313.296 156.589 315.656C158.129 319.966 159.799 324.966 161.589 330.646C163.379 336.336 165.179 342.186 167.009 348.196C168.839 354.206 170.599 360.146 172.309 365.996C174.019 371.846 175.519 377.086 176.819 381.716C175.919 382.776 174.599 383.626 172.859 384.276C171.109 384.926 169.019 385.256 166.579 385.256C163.079 385.256 160.629 384.646 159.199 383.426C157.779 382.206 156.739 380.296 156.089 377.696L153.159 367.826L153.169 367.806ZM141.349 326.116C140.209 329.776 138.809 333.936 137.149 338.606C135.479 343.276 133.919 348.056 132.459 352.926H149.889C148.509 347.806 147.109 342.906 145.689 338.236C144.269 333.566 143.069 329.516 142.089 326.106H141.359L141.349 326.116Z" fill="#BAF4EA"/>
<path d="M253.009 381.706C251.869 382.686 250.329 383.476 248.379 384.086C246.429 384.696 244.109 384.996 241.429 384.996C238.749 384.996 236.069 384.546 233.629 383.656C231.189 382.766 229.159 380.726 227.529 377.556L213.389 350.256C212.009 347.656 210.729 345.056 209.549 342.456C208.369 339.856 207.209 337.136 206.079 334.286L205.229 334.526C205.639 339.406 205.879 344.056 205.959 348.486C206.039 352.916 206.079 357.196 206.079 361.346V384.016C205.269 384.176 204.069 384.356 202.489 384.566C200.909 384.766 199.259 384.866 197.549 384.866C193.889 384.866 191.329 384.236 189.869 382.976C188.409 381.716 187.679 379.466 187.679 376.216V313.436C188.659 312.056 190.219 310.976 192.369 310.206C194.519 309.436 196.819 309.046 199.259 309.046C202.099 309.046 204.719 309.496 207.119 310.386C209.519 311.286 211.529 313.276 213.149 316.356L227.409 343.786C228.789 346.386 230.069 348.986 231.249 351.586C232.429 354.186 233.589 356.906 234.719 359.756L235.209 359.636C234.799 354.196 234.579 349.026 234.539 344.156C234.499 339.286 234.479 334.606 234.479 330.136V309.906C235.289 309.746 236.489 309.536 238.079 309.296C239.659 309.046 241.349 308.926 243.139 308.926C246.799 308.926 249.359 309.556 250.819 310.816C252.279 312.076 253.009 314.336 253.009 317.586V381.706ZM209.369 282.606C211.079 282.606 212.719 282.786 214.309 283.156C215.889 283.526 217.419 283.946 218.879 284.436C220.339 284.926 221.699 285.346 222.959 285.716C224.219 286.086 225.339 286.266 226.309 286.266C228.019 286.266 229.319 285.756 230.209 284.746C231.099 283.736 231.749 282.816 232.159 282.006H232.769C235.119 282.006 237.179 282.816 238.919 284.446C240.669 286.076 241.539 288.186 241.539 290.786C241.539 294.196 240.459 296.716 238.309 298.346C236.159 299.976 233.449 300.786 230.199 300.786C228.249 300.786 226.459 300.606 224.829 300.236C223.199 299.866 221.679 299.446 220.259 298.956C218.839 298.466 217.539 298.046 216.359 297.676C215.179 297.306 214.099 297.126 213.129 297.126C211.419 297.126 210.119 297.616 209.229 298.586C208.339 299.566 207.689 300.496 207.279 301.396H206.789C204.429 301.396 202.359 300.606 200.569 299.016C198.779 297.436 197.889 295.296 197.889 292.616C197.889 290.906 198.229 289.426 198.929 288.166C199.619 286.906 200.509 285.876 201.609 285.056C202.709 284.246 203.929 283.636 205.269 283.226C206.609 282.816 207.969 282.616 209.349 282.616L209.369 282.606Z" fill="#BAF4EA"/>
<path d="M280.189 384.876C276.369 384.876 273.709 384.226 272.209 382.926C270.699 381.626 269.949 379.266 269.949 375.856V309.906C270.839 309.746 272.119 309.536 273.789 309.296C275.459 309.046 277.139 308.926 278.849 308.926C282.509 308.926 285.129 309.536 286.709 310.756C288.289 311.976 289.089 314.376 289.089 317.946V383.886C288.199 384.136 286.939 384.356 285.309 384.556C283.679 384.756 281.979 384.856 280.189 384.856V384.876Z" fill="#BAF4EA"/>
<path d="M321.509 384.566C319.879 384.766 318.179 384.866 316.389 384.866C312.569 384.866 309.909 384.216 308.409 382.916C306.899 381.616 306.149 379.256 306.149 375.846V309.896C307.039 309.736 308.319 309.526 309.989 309.286C311.659 309.036 313.299 308.916 314.929 308.916C318.589 308.916 321.229 309.526 322.849 310.746C324.469 311.966 325.289 314.366 325.289 317.936V339.386H351.499V309.886C352.389 309.726 353.669 309.516 355.339 309.276C356.999 309.026 358.689 308.906 360.399 308.906C363.969 308.906 366.569 309.556 368.199 310.856C369.829 312.156 370.639 314.596 370.639 318.166V383.866C369.739 384.116 368.489 384.336 366.859 384.536C365.229 384.736 363.529 384.836 361.739 384.836C357.919 384.836 355.259 384.186 353.759 382.886C352.249 381.586 351.499 379.226 351.499 375.816V354.486H325.289V383.866C324.399 384.116 323.139 384.336 321.509 384.536V384.566Z" fill="#BAF4EA"/>
<path d="M419.389 386.086C414.349 386.086 409.859 385.396 405.919 384.016C401.979 382.636 398.619 380.686 395.859 378.166C393.099 375.646 390.979 372.616 389.519 369.086C388.059 365.546 387.329 361.586 387.329 357.196V309.896C388.219 309.736 389.499 309.526 391.169 309.286C392.839 309.036 394.519 308.916 396.229 308.916C399.889 308.916 402.509 309.526 404.089 310.746C405.669 311.966 406.469 314.366 406.469 317.936V356.816C406.469 361.206 407.669 364.596 410.069 366.996C412.469 369.396 415.569 370.596 419.399 370.596C423.229 370.596 426.449 369.396 428.849 366.996C431.249 364.596 432.449 361.206 432.449 356.816V309.886C433.339 309.726 434.619 309.516 436.289 309.276C437.949 309.026 439.639 308.906 441.349 308.906C445.009 308.906 447.629 309.516 449.209 310.736C450.789 311.956 451.589 314.356 451.589 317.926V357.176C451.589 361.566 450.859 365.526 449.389 369.066C447.929 372.606 445.809 375.626 443.049 378.146C440.289 380.666 436.909 382.616 432.929 383.996C428.949 385.376 424.439 386.066 419.399 386.066L419.389 386.086Z" fill="#BAF4EA"/>
<path d="M508.379 367.806H484.489C483.599 370.736 482.759 373.616 481.989 376.466C481.219 379.306 480.549 381.826 479.979 384.026C478.919 384.346 477.829 384.636 476.689 384.876C475.549 385.126 474.169 385.246 472.549 385.246C468.969 385.246 466.269 384.616 464.439 383.356C462.609 382.096 461.699 380.286 461.699 377.936C461.699 376.796 461.859 375.706 462.189 374.646C462.509 373.596 462.879 372.376 463.289 370.986C463.859 368.796 464.669 366.066 465.729 362.816C466.779 359.566 467.939 356.046 469.199 352.276C470.459 348.496 471.779 344.616 473.159 340.636C474.539 336.656 475.879 332.856 477.179 329.236C478.479 325.626 479.659 322.306 480.719 319.306C481.769 316.296 482.669 313.906 483.399 312.116C484.619 311.386 486.509 310.696 489.069 310.046C491.629 309.396 494.169 309.066 496.689 309.066C500.349 309.066 503.579 309.576 506.379 310.596C509.189 311.616 510.989 313.296 511.799 315.656C513.339 319.966 515.009 324.966 516.799 330.646C518.589 336.336 520.389 342.186 522.219 348.196C524.049 354.206 525.809 360.146 527.519 365.996C529.229 371.846 530.729 377.086 532.029 381.716C531.129 382.776 529.809 383.626 528.069 384.276C526.319 384.926 524.229 385.256 521.789 385.256C518.289 385.256 515.839 384.646 514.409 383.426C512.989 382.206 511.949 380.296 511.299 377.696L508.369 367.826L508.379 367.806ZM496.559 326.116C495.419 329.776 494.019 333.936 492.359 338.606C490.689 343.276 489.129 348.056 487.669 352.926H505.099C503.719 347.806 502.319 342.906 500.899 338.236C499.479 333.566 498.279 329.516 497.299 326.106H496.569L496.559 326.116Z" fill="#BAF4EA"/>
<path d="M545.619 381.516C543.789 379.686 542.879 377.226 542.879 374.136V309.896C543.769 309.736 545.049 309.526 546.719 309.286C548.389 309.036 550.029 308.916 551.659 308.916C555.319 308.916 557.959 309.526 559.579 310.746C561.199 311.966 562.019 314.366 562.019 317.936V368.766H591.279C591.769 369.576 592.229 370.636 592.679 371.936C593.129 373.236 593.349 374.656 593.349 376.206C593.349 378.886 592.759 380.896 591.579 382.236C590.399 383.576 588.799 384.246 586.759 384.246H552.989C549.899 384.246 547.439 383.336 545.619 381.506V381.516Z" fill="#BAF4EA"/>
<path d="M607.909 381.516C606.079 379.686 605.169 377.226 605.169 374.136V320.256C605.169 317.166 606.079 314.706 607.909 312.876C609.739 311.046 612.199 310.136 615.279 310.136H655.629C656.119 310.946 656.559 311.966 656.969 313.186C657.379 314.406 657.579 315.786 657.579 317.326C657.579 320.006 656.989 321.996 655.809 323.296C654.629 324.596 652.989 325.246 650.869 325.246H623.809V338.896H652.089C652.579 339.706 653.019 340.726 653.429 341.946C653.839 343.166 654.039 344.546 654.039 346.086C654.039 348.766 653.469 350.736 652.329 351.996C651.189 353.256 649.569 353.886 647.449 353.886H623.799V369.126H656.099C656.589 369.936 657.029 370.996 657.439 372.296C657.849 373.596 658.049 375.016 658.049 376.566C658.049 379.246 657.459 381.196 656.279 382.416C655.099 383.636 653.489 384.246 651.459 384.246H615.259C612.169 384.246 609.709 383.336 607.889 381.506L607.909 381.516Z" fill="#BAF4EA"/>
<path d="M694.149 370.486C698.449 370.486 701.519 369.736 703.349 368.226C705.179 366.726 706.089 364.916 706.089 362.806C706.089 360.856 705.379 359.286 703.959 358.116C702.539 356.936 700.399 355.906 697.559 355.006L691.339 353.056C687.929 352.006 684.839 350.846 682.079 349.586C679.319 348.326 676.959 346.826 675.009 345.076C673.059 343.326 671.539 341.256 670.439 338.856C669.339 336.456 668.789 333.556 668.789 330.136C668.789 323.306 671.369 317.906 676.529 313.926C681.689 309.946 688.859 307.956 698.039 307.956C701.529 307.956 704.759 308.196 707.729 308.686C710.699 309.176 713.229 309.926 715.349 310.946C717.459 311.966 719.129 313.196 720.349 314.666C721.569 316.126 722.179 317.836 722.179 319.786C722.179 321.736 721.709 323.306 720.779 324.726C719.839 326.146 718.769 327.346 717.549 328.326C715.679 327.026 713.199 325.926 710.109 325.036C707.019 324.146 703.649 323.696 699.989 323.696C696.089 323.696 693.199 324.306 691.329 325.526C689.459 326.746 688.529 328.286 688.529 330.156C688.529 331.786 689.139 333.016 690.359 333.876C691.579 334.726 693.489 335.606 696.089 336.496L702.669 338.686C706.489 339.986 709.839 341.386 712.729 342.896C715.609 344.406 718.029 346.106 719.979 348.016C721.929 349.926 723.389 352.116 724.369 354.596C725.339 357.076 725.829 359.896 725.829 363.066C725.829 366.476 725.159 369.586 723.819 372.396C722.479 375.196 720.489 377.616 717.849 379.646C715.209 381.676 711.959 383.266 708.099 384.396C704.239 385.536 699.789 386.106 694.749 386.106C691.009 386.106 687.559 385.806 684.389 385.196C681.219 384.586 678.479 383.716 676.159 382.576C673.839 381.436 672.019 380.036 670.669 378.366C669.329 376.696 668.659 374.806 668.659 372.696C668.659 370.586 669.289 368.676 670.549 367.206C671.809 365.746 673.209 364.566 674.749 363.666C676.939 365.456 679.689 367.036 682.979 368.416C686.269 369.796 689.989 370.486 694.129 370.486H694.149Z" fill="#BAF4EA"/>
<path d="M723.709 160.026C723.469 160.026 723.229 160.016 722.979 159.986C690.849 156.296 660.299 151.186 639.629 129.476C635.539 125.186 631.959 120.346 628.509 115.676C621.459 106.156 614.809 97.1663 605.089 94.3163C591.179 90.2763 576.129 100.376 563.239 110.826C547.449 123.626 530.399 135.786 510.859 131.676C492.629 127.836 481.609 111.136 472.759 97.7063C455.329 71.2763 435.759 45.9464 414.579 22.4163C410.359 17.7263 405.429 12.7163 400.199 12.5463C392.669 12.2463 387.389 21.5063 381.469 33.5663L380.359 35.8163C370.579 55.5263 354.269 71.6163 334.449 81.1463C321.629 87.2963 309.879 89.1363 299.529 86.6363C297.749 86.2063 295.989 85.6363 294.249 85.0563C291.849 84.2663 289.579 83.5163 287.499 83.3363C278.959 82.5963 272.319 90.2563 264.619 99.1263C256.379 108.606 247.049 119.356 233.209 119.916C228.579 120.106 224.249 119.026 220.439 118.066C217.729 117.386 215.169 116.746 212.759 116.596C204.609 116.076 196.659 120.826 188.269 125.866C186.769 126.766 185.289 127.656 183.799 128.526C132.389 158.326 70.0588 152.326 5.36882 142.906C1.93882 142.406 -0.44118 139.226 0.0688205 135.796C0.56882 132.356 3.76882 129.986 7.17882 130.486C69.5988 139.586 129.599 145.446 177.509 117.666C178.939 116.836 180.369 115.976 181.809 115.116C191.029 109.576 201.519 103.276 213.559 104.076C217.099 104.306 220.339 105.116 223.479 105.896C226.769 106.726 229.869 107.506 232.699 107.376C241.129 107.036 247.939 99.1964 255.149 90.8963C263.849 80.8863 273.699 69.5363 288.589 70.8363C292.119 71.1463 295.349 72.2063 298.189 73.1363C299.619 73.6063 301.049 74.0863 302.499 74.4363C309.969 76.2563 318.889 74.7063 329.029 69.8363C346.349 61.5263 360.589 47.4563 369.139 30.2463L370.229 28.0364C376.119 15.9964 384.329 -0.593651 400.589 0.0163487C411.609 0.366349 419.609 9.25635 423.899 14.0263C445.499 38.0263 465.459 63.8463 483.229 90.7963C491.209 102.896 500.259 116.616 513.439 119.396C527.579 122.386 541.889 111.986 555.329 101.086C570.739 88.5963 589.119 76.5663 608.599 82.2863C622.379 86.3063 630.619 97.4464 638.589 108.226C641.969 112.796 645.159 117.106 648.709 120.836C666.489 139.506 694.659 144.116 724.409 147.526C727.849 147.926 730.319 151.036 729.929 154.476C729.559 157.676 726.849 160.036 723.699 160.036L723.709 160.026Z" fill="#25AE7A"/>
<path d="M711.599 8.77621C709.359 8.06621 707.039 7.42621 704.699 6.90621C684.679 2.45621 663.699 6.12621 646.389 17.1362C629.069 28.1362 616.839 45.5662 612.369 65.5862L611.929 67.5562L665.629 38.0262L616.079 74.0162L618.049 74.4562C638.069 78.9262 659.049 75.2562 676.369 64.2562C693.689 53.2562 705.919 35.8262 710.389 15.8062C710.909 13.4662 711.419 11.1762 711.619 8.78621L711.599 8.77621Z" fill="#25AE7A"/>
<path d="M565.709 5.78632C564.179 5.44632 562.809 5.13632 561.119 4.97632C560.779 6.47632 560.239 7.81632 559.869 9.49632C556.949 22.6363 559.359 36.3963 566.589 47.7663C573.809 59.1263 585.239 67.1563 598.379 70.0963L599.679 70.3863L580.189 35.1763L603.819 67.7863L604.109 66.4863C607.089 53.3463 604.709 39.5563 597.509 28.1763C590.309 16.7863 578.869 8.73632 565.719 5.79632L565.709 5.78632Z" fill="#25AE7A"/>
</svg>
